<svg xmlns="http://www.w3.org/2000/svg" width="256" height="256"><path fill="#1976D2" fill-opacity=".016" fill-rule="evenodd" d="M0 128.004v128.004l128.25-.254 128.25-.254.254-127.75L257.008 0H0zm.485.496c0 70.4.119 99.053.265 63.672s.146-92.98 0-128S.485 58.1.485 128.5"/><path fill="#1976D2" fill-opacity=".283" fill-rule="evenodd" d="M0 128.004v128.004l128.25-.254 128.25-.254.254-127.75L257.008 0H0zm.485.496c0 70.4.119 99.053.265 63.672s.146-92.98 0-128S.485 58.1.485 128.5M143 44.9l-4.5.6.066 5c.037 2.75.653 10.287 1.37 16.75L141.239 79h2.88c1.585 0 2.887-.338 2.895-.75.007-.412 1.996-8.287 4.421-17.5L155.842 44l-4.171.15c-2.294.083-6.196.42-8.671.75m-19.341 4.116c-3.213 1.008-6.033 2.024-6.266 2.258-.332.332 5.896 17.562 10.076 27.876.561 1.386 1.258 1.49 4.35.646 2.024-.553 3.791-1.105 3.925-1.228.264-.241-2.371-23.001-3.28-28.318-.631-3.699-.853-3.73-8.805-1.234m-15.307 5.981c-1.181.475-2.429 1.319-2.773 1.876s2.391 7.067 6.078 14.466c6.439 12.919 6.797 13.411 9.024 12.397 1.275-.582 2.319-1.339 2.319-1.683 0-1.609-10.881-27.505-11.639-27.699-.474-.121-1.827.168-3.009.643m-11.736 7.186-2.65 2.317 7.767 12.708c4.272 6.989 7.992 12.712 8.267 12.718s1.339-.625 2.365-1.402c1.777-1.346 1.545-2.023-4.866-14.219-3.703-7.043-7.07-13.173-7.482-13.622-.413-.449-1.943.226-3.401 1.5m-9.606 8.306-2.281 2.428 8.886 12.005c4.887 6.602 9.114 12.021 9.394 12.041.281.02 1.074-.866 1.764-1.97 1.11-1.778.382-3.38-6.362-14.005-4.189-6.598-7.954-12.206-8.368-12.461s-1.779.627-3.033 1.962m-7.87 9.06-2.117 2.692 2.966 3.629c1.632 1.997 6.285 7.212 10.341 11.591 7.051 7.612 7.425 7.866 8.538 5.785 1.044-1.951.27-3.345-7.475-13.461-4.752-6.207-8.977-11.655-9.388-12.106s-1.7.39-2.865 1.87m-6.337 10.737-1.676 3.516 11.186 10.023c9.93 8.897 11.287 9.81 12.079 8.123.92-1.959.938-1.935-15.1-19.812l-4.812-5.365zM128 89.046c-10.489 3.765-19.221 11.488-24.257 21.454-1.288 2.549-10.145 27.023-32.297 89.25L67.085 212h27.748l4.916-14.75 4.917-14.75 24.417-.264 24.417-.264 5.119 14.764 5.118 14.764 13.756.279c12.775.259 13.721.152 13.27-1.5-.424-1.558-41.549-116.972-43.303-121.529-.964-2.503-12.134-2.333-19.46.296m-59.51 13c-.381 1.733-.309 3.492.159 3.907s5.637 4.416 11.487 8.89c9.385 7.176 10.698 7.898 11.16 6.131.408-1.557-1.791-4.165-9.899-11.738-5.733-5.355-10.826-9.872-11.319-10.039s-1.207 1.115-1.588 2.849m-2.759 11.214c-.272 1.782-.435 3.3-.362 3.373.072.073 5.076 3.313 11.119 7.2 9.064 5.83 11.138 6.8 11.842 5.542.469-.839.7-1.637.512-1.775S84 123.756 78.5 119.362c-12.854-10.27-12.183-9.949-12.769-6.102m54.734 21.902c-4.268 12.836-7.966 23.901-8.219 24.588-.357.969 3.404 1.25 16.754 1.25 13.342 0 17.114-.281 16.769-1.25-.245-.687-3.951-11.375-8.236-23.75s-8.132-22.877-8.55-23.338c-.417-.46-4.25 9.665-8.518 22.5m-55.681-10.141c-.425 2.894-.082 3.194 9.638 8.418 8.379 4.503 10.22 5.163 10.92 3.914.463-.827.688-1.628.5-1.781-.587-.476-18.28-12.178-19.48-12.883-.718-.422-1.301.44-1.578 2.332m-.311 11.727c.379 1.511.765 2.775.858 2.809.093.033 3.846 1.689 8.34 3.678 6.966 3.085 8.26 3.387 8.774 2.048.331-.863.479-1.661.329-1.772-1.838-1.364-17.247-9.511-17.99-9.511-.592 0-.719 1.122-.311 2.748m.527 10.67c0 2.098.897 2.717 6.75 4.665 3.713 1.236 6.969 2.285 7.236 2.332.268.047.625-.633.794-1.512.217-1.128-1.761-2.521-6.745-4.75-3.879-1.734-7.274-3.153-7.544-3.153S65 146.088 65 147.418m1.706 10.566c.786 3.006 10.294 5.417 10.294 2.61 0-.78-2.081-2.115-4.678-3-5.946-2.026-6.242-2.005-5.616.39"/><path fill="#1976D2" fill-opacity=".35" fill-rule="evenodd" d="M0 128.004v128.004l128.25-.254 128.25-.254.254-127.75L257.008 0H0zm.485.496c0 70.4.119 99.053.265 63.672s.146-92.98 0-128S.485 58.1.485 128.5M140.5 44.905c-2.17.484-2.958 1.212-2.848 2.632.623 8.076 2.523 26.471 2.965 28.713.44 2.231 1.081 2.75 3.395 2.75 1.846 0 3.043-.618 3.39-1.75C148.42 73.933 156 45.107 156 44.554c0-.749-11.758-.483-15.5.351m-17.493 3.939c-3.093.97-5.584 2.363-5.701 3.189-.115.807 2.142 7.542 5.016 14.967l5.226 13.5 3.976-.349c2.187-.192 4.166-.532 4.399-.757s-.408-7.604-1.424-16.401c-2.102-18.195-1.388-17.317-11.492-14.149m-15.253 6.258-3.746 1.941 6.961 13.894c6.157 12.293 7.204 13.83 9.08 13.34 1.166-.305 2.356-1.168 2.643-1.918.461-1.2-9.045-26.8-10.592-28.528-.33-.368-2.286.204-4.346 1.271M96.25 61.674c-1.237.864-2.25 2.001-2.25 2.528C94 65.525 109.138 90 109.957 90c.363 0 1.534-.647 2.602-1.438 1.875-1.389 1.702-1.9-5.059-14.982-3.85-7.45-7.45-13.529-8-13.51s-2.013.741-3.25 1.604m-9.583 8.152-2.688 2.805 9.099 11.934c5.004 6.564 9.429 12.058 9.833 12.209s1.445-.524 2.313-1.5c1.462-1.644.98-2.704-6.573-14.456-4.483-6.975-8.409-12.933-8.724-13.239s-1.782.704-3.26 2.247m-8.028 9.602C77.738 80.804 77 82.218 77 82.571c0 1.215 19.501 22.239 20.429 22.024.51-.118 1.391-.948 1.957-1.845.825-1.307-.758-3.961-7.975-13.373-4.952-6.458-9.483-11.901-10.068-12.096-.586-.195-1.802.771-2.704 2.147M133 87.362c-12.466 2.709-23.771 11.289-28.939 21.966C101.695 114.217 67 209.989 67 211.632c0 .233 6.376.298 14.168.145l14.168-.277 4.921-14.768 4.921-14.767 24.042.267 24.041.268 5.12 14.749 5.119 14.748 14.206.002 14.205.001-1.352-3.75c-.744-2.062-10.585-29.625-21.869-61.25s-20.829-58.287-21.211-59.25c-.826-2.085-6.026-2.224-14.479-.388m-60.359 2.365C71.738 91.473 71 93.116 71 93.378c0 1.27 22.169 20.635 23.021 20.109 2.682-1.657.389-5.545-9.412-15.96L74.282 86.554zm-4.458 11.494c-.489 1.803-.713 3.602-.497 3.997s5.43 4.586 11.586 9.314c10.454 8.028 11.253 8.458 12.116 6.524.802-1.797-.439-3.361-9.37-11.813-12.911-12.221-12.726-12.113-13.835-8.022M65.63 112.25c-.331 1.237-.609 2.768-.616 3.401-.019 1.538 21.797 15.584 23.025 14.825 2.241-1.385.372-3.606-9.939-11.806-5.995-4.769-11.117-8.67-11.383-8.67s-.755 1.013-1.087 2.25m54.982 23.413c-4.186 12.561-7.612 23.4-7.612 24.087 0 .948 3.87 1.25 16 1.25 12.101 0 16-.303 16-1.245 0-1.663-15.081-45.023-16.031-46.093-.409-.46-4.17 9.44-8.357 22.001m-56.425-10.429c.288 2.973 1.104 3.662 10.105 8.533 9.39 5.082 11.708 5.641 11.708 2.826C86 135.266 66.86 122 64.945 122c-.606 0-.936 1.406-.758 3.234M64 135.957c0 2.963.47 3.351 8.6 7.089 4.729 2.175 9.036 3.954 9.569 3.954s.826-.946.651-2.102c-.228-1.495-2.991-3.542-9.57-7.089L64 132.822zm1.19 11.249c.274 2.758.884 3.31 5.31 4.809 9.491 3.213 9.215 3.181 9.753 1.127.413-1.581-.881-2.535-7.436-5.483l-7.937-3.569zm.81 9.672c0 2.353 1.444 3.451 6.459 4.911 3.065.892 4.134.877 4.735-.068 1.348-2.122.933-2.53-4.732-4.649-6.714-2.512-6.462-2.505-6.462-.194"/><path fill="#1976D2" fill-opacity=".641" fill-rule="evenodd" d="M0 128.004v128.004l128.25-.254 128.25-.254.254-127.75L257.008 0H0zm.485.496c0 70.4.119 99.053.265 63.672s.146-92.98 0-128S.485 58.1.485 128.5m143.646-84.421c-3.503.454-6.556 1.013-6.785 1.241-.228.229.361 7.922 1.309 17.097l1.725 16.681 3.549-.299 3.55-.299 4.599-17.245c2.53-9.484 4.372-17.472 4.094-17.75-.635-.635-3.927-.478-12.041.574M124 48.311c-4.125 1.204-7.5 2.639-7.5 3.189s2.434 7.453 5.41 15.34l5.409 14.339 4.591-.683c2.524-.376 4.675-.764 4.78-.863.104-.099-.678-7.144-1.738-15.656s-1.933-16.039-1.94-16.727c-.015-1.569.012-1.573-9.012 1.061m-16.75 6.434c-1.787.89-3.25 1.993-3.25 2.451 0 .766 12.778 26.816 13.581 27.689.195.211 1.743-.191 3.439-.893 2.174-.901 2.911-1.752 2.496-2.885-4.648-12.707-11.237-28.079-12.016-28.035-.55.031-2.463.784-4.25 1.673M96.216 61.75l-3.209 2.75 8.246 13.238c4.536 7.282 8.472 13.229 8.747 13.217s1.501-.857 2.725-1.878l2.225-1.857-7.225-14.091c-3.974-7.75-7.467-14.1-7.763-14.11-.296-.011-1.982 1.218-3.746 2.731m-9.619 8.148-2.776 2.899 9.339 12.558c5.137 6.908 9.565 12.564 9.84 12.571s1.283-1.067 2.241-2.384c1.722-2.368 1.648-2.541-6.5-15.442-4.533-7.176-8.494-13.059-8.804-13.074-.31-.014-1.812 1.278-3.34 2.872m-8.242 9.44-2.145 3.313 8.47 9.425c4.658 5.183 9.489 10.467 10.735 11.742l2.266 2.318 1.607-2.453c1.579-2.409 1.438-2.674-7.994-15.068-5.28-6.938-9.869-12.609-10.197-12.603s-1.562 1.504-2.742 3.326m-5.773 9.88c-2.128 5.001-2.081 5.219 1.798 8.459 1.859 1.553 7.029 6.128 11.489 10.169l8.108 7.345 1.031-2.711c.954-2.509.527-3.269-5.739-10.216-3.723-4.128-8.645-9.589-10.937-12.135L74.163 85.5zm59.036-2.127c-9.261 2.224-20.589 10.375-26.197 18.849-3.629 5.484-39.462 106.107-37.987 106.673.642.246 7.188.322 14.546.167l13.38-.28 5.046-15.25 5.046-15.25h47.243l5.402 15.25 5.403 15.25 14.25.277c11.07.216 14.234-.007 14.179-1-.039-.702-10.053-29.177-22.253-63.277l-22.181-62-5.998-.171c-3.298-.093-7.744.249-9.879.762M68.677 98.75c-.243.412-.729 2.1-1.08 3.75-.61 2.872-.141 3.379 11.029 11.911 11.097 8.477 11.735 8.818 13.099 7 1.331-1.773.615-2.687-9.895-12.643-11.25-10.656-12.305-11.46-13.153-10.018m-3.06 11.806c-1.923 5.012-.938 6.296 10.633 13.863 6.188 4.047 11.588 7.156 12 6.91 2.995-1.785-3.164-8.133-20.883-21.524-.707-.534-1.366-.251-1.75.751m55.1 25.768c-4.244 12.772-7.717 23.437-7.717 23.699s7.2.477 16 .477 16-.181 16-.401c0-.56-16.021-46.454-16.322-46.754-.134-.134-3.716 10.206-7.961 22.979M64.001 124.75c.001 3.737.037 3.769 10.557 9.434 10.291 5.541 10.576 5.629 11.364 3.5.724-1.953-.339-2.952-10.037-9.434-5.965-3.987-11.08-7.25-11.366-7.25s-.519 1.688-.518 3.75M64 136.381c0 3.288.233 3.482 8.423 7 4.633 1.991 8.86 3.619 9.393 3.619 1.595 0 2.353-3.274.968-4.181C80.11 141.068 65.166 133 64.596 133c-.328 0-.596 1.522-.596 3.381m.014 8.802c.045 4.366 1.255 5.51 8.187 7.742 5.785 1.864 7.212 2.03 7.913.924 1.498-2.362 1.016-2.874-5.419-5.762-8.898-3.992-10.698-4.481-10.681-2.904m2.17 12.529c.264 2.262 1.062 2.926 4.816 4.01 5.181 1.494 7 1.103 7-1.508 0-1.357-1.419-2.296-5.338-3.531-6.867-2.165-6.851-2.167-6.478 1.029"/></svg>