<svg xmlns="http://www.w3.org/2000/svg" xml:space="preserve" viewBox="0 0 31.98 42.17"><defs><linearGradient id="a" x1="11.54" x2="76.72" y1="53.4" y2="53.4" gradientUnits="userSpaceOnUse"><stop offset=".24" stop-color="#eb5b00"/><stop offset=".74" stop-color="#c00000"/></linearGradient></defs><path fill="#bf0303" d="m24.9 42.17-2.62-7.58H10.26l-2.54 7.58H.64l8.7-24.37c1.53-4.3 5.6-7.15 10.15-7.15h1.25l11.24 31.52h-7.07ZM12.04 29.29h8.39l-4.27-12.3Z"/><path fill="url(#a)" d="M48.51 16.66a79.1 79.1 0 0 1 11.33-3.38l2.8 23.29a34.7 34.7 0 0 0-6.1 1.23L48.5 16.66Zm14.7-4.05 2.55 23.75.79-.03h3.51l6.64-24.99s-5.59-.14-13.5 1.27zM25.73 31.85l13.3 17.62a35.44 35.44 0 0 1 2.66-2.94l-11.92-18.7a51.29 51.29 0 0 0-4.05 4.03zm24.02 8.75a35.43 35.43 0 0 1 3.95-1.84l-8.33-20.82a68.5 68.5 0 0 0-5.63 2.8l10 19.85zM32.58 61.43l.55-1.54c.23-.63.49-1.24.75-1.86L18.89 41.52a56 56 0 0 0-2.52 5.28zM12.35 86.57l10.03 3.44.99-2.77c-5.09-2.22-10.25-4.48-11.48-5.03v.06c.12 1.4.28 2.84.45 4.29zm31.54-42.04a35.62 35.62 0 0 1 3.32-2.42L36.96 22.42a54.92 54.92 0 0 0-4.75 3.37l11.67 18.75ZM11.62 69.77l-.04 1.26 14.76 7.93.97-2.72-15.45-10.22c-.06.67-.1 1.35-.14 2.03-.03.57-.07 1.14-.09 1.72zm.05 9.08v.09l12.7 5.52.95-2.66-13.78-7.55v.5c.02 1.34.05 2.7.13 4.1zm9.73 13.94-8.61-2.91c.18 1.22.38 2.46.6 3.72l7.05 1.87zm13.84-37.61c.6-1.13 1.26-2.21 1.97-3.26l-13.5-17.67a50.3 50.3 0 0 0-3.29 4.66zm-4.83 12.37 1.08-3.03-16.12-15.1a61.45 61.45 0 0 0-1.64 5.37zm-2.07 5.81 1-2.81-16.27-12.88a67.82 67.82 0 0 0-.88 5.26z" transform="matrix(.3542 0 0 .3542 -4.09 -4.02)"/></svg>
